<?xml version="1.0" encoding="UTF-8" standalone="no"?><!DOCTYPE svg PUBLIC "-//W3C//DTD SVG 1.1//EN" "http://www.w3.org/Graphics/SVG/1.1/DTD/svg11.dtd"><svg width="100%" height="100%" viewBox="0 0 2459 926" version="1.1" xmlns="http://www.w3.org/2000/svg" xmlns:xlink="http://www.w3.org/1999/xlink" xml:space="preserve" xmlns:serif="http://www.serif.com/" style="fill-rule:evenodd;clip-rule:evenodd;stroke-linecap:round;stroke-linejoin:round;stroke-miterlimit:1.5;"><rect id="Artboard1" x="0" y="0" width="2458.99" height="925.3" style="fill:none;"/><clipPath id="_clip1"><rect x="0" y="0" width="2458.99" height="925.3"/></clipPath><g clip-path="url(#_clip1)"><path d="M2394.99,-0c16.97,-0 33.25,6.74 45.25,18.75c12,12 18.75,28.28 18.75,45.25l0,797.3c-0,16.97 -6.74,33.25 -18.75,45.25c-12,12 -28.28,18.75 -45.25,18.75l-2330.99,0c-16.97,0 -33.25,-6.74 -45.25,-18.75c-12,-12 -18.75,-28.28 -18.75,-45.25l0,-797.3c0,-16.97 6.74,-33.25 18.75,-45.25c12,-12 28.28,-18.75 45.25,-18.75l2330.99,-0Z" style="fill:#008cff;"/><path d="M1834.74,134.44c33.48,12.38 46.22,44.16 43.96,82.96c-0.08,1.43 -0.19,2.84 -0.31,4.25c17.78,4.85 35.25,10.59 51.74,17.06c4.59,1.8 9.1,3.65 13.52,5.56c48.57,-11.88 138.63,-15.88 246.45,64.4c60.17,44.8 90.42,107.65 104.92,167.04c17.46,71.53 12.02,137.88 9.33,160.51c6.84,1.28 12.28,4.38 16.42,8.43c8.84,8.67 11.64,22.1 8.5,33.26c-2.09,7.45 -6.74,13.85 -13.67,17.49c-0.26,0.26 -0.54,0.5 -0.85,0.73c-1.59,1.19 -3.65,2.33 -6.16,3.39c-6.67,3.49 -14.04,7.06 -22.11,10.58c7.39,5.43 14.12,12.36 19.59,20.89c13.42,20.91 22.35,50.34 27.43,71.55l0.01,0.03c2.12,8.99 -0.33,18.44 -6.55,25.27c-6.22,6.82 -15.41,10.14 -24.55,8.86l-0,-0c-35.59,-4.99 -92.24,-24.44 -105.38,-95.64c-0.31,-1.67 -0.53,-3.3 -0.66,-4.88c-26.23,4.19 -55.81,6.25 -88.82,4.83c7.48,33.7 14.52,72.57 19.05,98.89l0,0c1.92,11.18 -1.67,22.59 -9.63,30.67c-7.96,8.07 -19.33,11.81 -30.53,10.04l-0.02,-0c-58.88,-9.43 -119.76,-65.32 -144.69,-128.01c-5.2,-13.06 -8.84,-26.4 -10.62,-39.66c-0.49,1.87 -1.01,3.7 -1.58,5.47c-4.79,14.94 -12.94,25.92 -23.91,28.82c-24.19,6.41 -39.25,-9.4 -47.59,-32.15c-5.15,-14.06 -7.69,-30.7 -8.93,-44.09c-36.23,-17.81 -70.91,-38.61 -102.52,-60.69c-42.53,48.51 -95.47,75.56 -144.51,84.29c-10.79,1.92 -21.75,-2.32 -28.43,-11c-6.69,-8.68 -8,-20.36 -3.39,-30.3l0.01,-0.02c13.38,-28.74 36.04,-70.14 66.74,-101.44c5.86,-5.98 12.02,-11.59 18.46,-16.68c-12.54,-12.42 -23.69,-24.65 -33.2,-36.43c-24.33,-30.16 -37.86,-57.76 -38.01,-78.1c-0.24,-34.01 15.52,-91.57 43.29,-138.06c18.94,-31.7 43.5,-58.15 71.9,-69.37c35.51,-14.02 97.24,-10.87 158.38,3.28c3.72,-22.13 0.59,-34.84 -0.24,-38.22c-2.85,-11.63 -9.27,-24.64 -25.9,-33.58c-4.46,8.14 -13.11,13.67 -23.04,13.67c-14.48,0 -26.24,-11.76 -26.24,-26.24c0,-14.48 11.76,-26.24 26.24,-26.24c14.48,0 26.24,11.76 26.24,26.24c0,0.79 -0.04,1.58 -0.1,2.35Z" style="fill:#225ec2;"/><g><path d="M1797.45,114.61c0.42,-1.73 0.49,-1.8 2.01,-2.72c1.79,-1.08 1.92,-0.82 3.97,-0.42c43.35,8.37 59.7,43.07 57.16,86.61c-1.02,17.46 -5.1,34.04 -8.49,43.13c-1.72,4.61 -5.72,6.35 -6.39,6.65c-1.41,0.61 -2.96,0.97 -4.49,1.01c-5.04,0.1 -8.13,-2.88 -8.66,-3.4c-3.5,-3.39 -3.6,-7.56 -3.62,-8.29c-0.07,-3.17 0.24,-3.14 1.35,-6.1c3.34,-8.9 5.37,-16.31 5.77,-17.75c8.84,-32.19 4.38,-50.27 3.37,-54.4c-3.49,-14.24 -12.34,-30.56 -38.72,-38.92c-1.69,-0.53 -1.82,-0.48 -2.74,-2c-0.93,-1.54 -0.94,-1.63 -0.51,-3.38Z"/><circle cx="1790.5" cy="112.76" r="26.24"/><path d="M1952.64,469.45l319.11,126.64l9.46,27.72l20.49,10.7l3.13,18.65l-12.99,17.24l-58.39,8.61l-260.51,-35.82l-63.45,-92.23l43.15,-81.51Z" style="fill:#fff;"/><path d="M1890.72,246.09l21.6,222.7c162.35,93.84 202.02,153.89 364.91,155.02c0,0 36.28,-219.13 -110.01,-328.04c-158.01,-117.64 -276.5,-49.68 -276.5,-49.68Z"/><clipPath id="_clip2"><path d="M1890.72,246.09l21.6,222.7c162.35,93.84 202.02,153.89 364.91,155.02c0,0 36.28,-219.13 -110.01,-328.04c-158.01,-117.64 -276.5,-49.68 -276.5,-49.68Z"/></clipPath><g clip-path="url(#_clip2)"><path d="M2031.26,535.92l80.36,-187.43l124.31,42.15l15.35,240.53" style="fill:none;stroke:#fff;stroke-width:14px;"/><path d="M2236.99,389.58l41.3,-8.27" style="fill:none;stroke:#fff;stroke-width:12px;"/><path d="M2009.03,226.93l102.6,121.55" style="fill:none;stroke:#fff;stroke-width:14px;"/></g><path d="M1890.72,246.09l21.6,222.7c162.35,93.84 202.02,153.89 364.91,155.02c0,0 36.28,-219.13 -110.01,-328.04c-158.01,-117.64 -276.5,-49.68 -276.5,-49.68Z" style="fill:none;stroke:#000;stroke-width:16px;"/><path d="M1837.77,626.98c0,0 -1.56,106.22 47.65,93.19c29.14,-7.72 25.41,-93.19 25.41,-93.19l-73.07,0Z" style="stroke:#000;stroke-width:16px;"/><path d="M1582.52,667.38c-7.85,1.4 -15.83,-1.69 -20.7,-8.01c-4.87,-6.32 -5.82,-14.82 -2.47,-22.05c21.8,-46.83 68.66,-128.16 135.46,-140.59c94.69,-17.61 61.42,41.3 61.42,41.3c-44.11,77.38 -112.05,118.37 -173.72,129.35Z" style="fill:#fff;"/><clipPath id="_clip3"><path d="M1582.52,667.38c-7.85,1.4 -15.83,-1.69 -20.7,-8.01c-4.87,-6.32 -5.82,-14.82 -2.47,-22.05c21.8,-46.83 68.66,-128.16 135.46,-140.59c94.69,-17.61 61.42,41.3 61.42,41.3c-44.11,77.38 -112.05,118.37 -173.72,129.35Z"/></clipPath><g clip-path="url(#_clip3)"><path d="M1586.81,658.75c0,0 46.58,-31.32 69.89,-67.77c24.16,-37.77 22.24,-72.01 22.24,-72.01l145.07,46.59l-260.5,146.13l23.3,-52.95Z"/></g><path d="M1582.52,667.38c-7.85,1.4 -15.83,-1.69 -20.7,-8.01c-4.87,-6.32 -5.82,-14.82 -2.47,-22.05c21.8,-46.83 68.66,-128.16 135.46,-140.59c94.69,-17.61 61.42,41.3 61.42,41.3c-44.11,77.38 -112.05,118.37 -173.72,129.35Z" style="fill:none;stroke:#000;stroke-width:16px;"/><path d="M2291.85,670.4c20.95,-7.87 17.13,-48.2 -14.62,-46.59" style="fill:none;stroke:#000;stroke-width:15px;"/><path d="M2291.85,670.4c-62.64,34.12 -195.24,80.28 -408.54,-4.24c-162.73,-64.48 -308.75,-201.23 -309.21,-264.94c-0.39,-54.99 42.78,-173.34 110.13,-199.93c81.13,-32.03 302.33,29.65 328.27,101.66c25.9,71.89 -54.01,222.38 -54.01,222.38c0,0 -15.51,37.43 11.65,52.95c27.16,15.52 127.07,81.27 192.73,93.19c65.66,11.92 116.15,8.53 128.98,-1.06Z" style="fill:#fff;"/><clipPath id="_clip4"><path d="M2291.85,670.4c-62.64,34.12 -195.24,80.28 -408.54,-4.24c-162.73,-64.48 -308.75,-201.23 -309.21,-264.94c-0.39,-54.99 42.78,-173.34 110.13,-199.93c81.13,-32.03 302.33,29.65 328.27,101.66c25.9,71.89 -54.01,222.38 -54.01,222.38c0,0 -15.51,37.43 11.65,52.95c27.16,15.52 127.07,81.27 192.73,93.19c65.66,11.92 116.15,8.53 128.98,-1.06Z"/></clipPath><g clip-path="url(#_clip4)"><path d="M1666.17,250.04c17.36,7.49 22.46,34.4 11.38,60.06c-11.07,25.66 -34.15,40.41 -51.51,32.92c-17.36,-7.49 -22.46,-34.4 -11.38,-60.06c11.07,-25.66 34.15,-40.41 51.51,-32.92Z"/><path d="M1880.73,288.9c30.51,10.44 46.26,45.27 35.16,77.73c-11.11,32.46 -44.9,50.34 -75.41,39.9c-30.51,-10.44 -46.26,-45.27 -35.16,-77.73c11.11,-32.46 44.9,-50.34 75.41,-39.9Z"/></g><path d="M2291.85,670.4c-62.64,34.12 -195.24,80.28 -408.54,-4.24c-162.73,-64.48 -308.75,-201.23 -309.21,-264.94c-0.39,-54.99 42.78,-173.34 110.13,-199.93c81.13,-32.03 302.33,29.65 328.27,101.66c25.9,71.89 -54.01,222.38 -54.01,222.38c0,0 -15.51,37.43 11.65,52.95c27.16,15.52 127.07,81.27 192.73,93.19c65.66,11.92 116.15,8.53 128.98,-1.06Z" style="fill:none;stroke:#000;stroke-width:16px;"/><path d="M1673.64,381.96c9.99,17.55 42.06,28.88 72.01,13.77" style="fill:none;stroke:#000;stroke-width:16px;"/><path d="M1939.43,613.22c23.14,-31.5 96.4,3.13 122.84,45.53c12.43,19.94 29.81,113.76 38.31,163.17c1.48,8.64 -1.29,17.46 -7.44,23.69c-6.15,6.24 -14.94,9.13 -23.59,7.76c-94.13,-15.07 -192.84,-154.75 -130.12,-240.16Z" style="fill:#fff;stroke:#000;stroke-width:16px;"/><path d="M2285.4,809.45c6.53,0.91 13.09,-1.46 17.53,-6.33c4.44,-4.87 6.19,-11.62 4.68,-18.04c-4.9,-20.47 -13.43,-48.91 -26.38,-69.09c-30.15,-46.99 -102.75,-40.68 -94.45,4.29c12.28,66.52 65.37,84.51 98.63,89.17Z" style="fill:#fff;stroke:#000;stroke-width:16px;"/></g><path d="M389.42,571.59l-125.36,0l0,-192.28l42.99,0l0,159.03l82.37,0l0,33.25Zm61.32,-58.59c0.38,2.48 0.95,4.85 1.7,7.1c1.52,4.58 3.74,8.5 6.66,11.77c2.91,3.27 6.44,5.82 10.57,7.63c4.13,1.81 8.84,2.72 14.13,2.72c6.49,0 12.69,-1.24 18.6,-3.73c5.91,-2.49 11,-6.42 15.27,-11.8l19.33,22.05c-2.93,4.22 -7.02,8.3 -12.25,12.23c-5.23,3.93 -11.51,7.12 -18.83,9.58c-7.32,2.46 -15.57,3.69 -24.77,3.69c-11.35,0 -21.52,-1.81 -30.5,-5.42c-8.98,-3.61 -16.57,-8.61 -22.78,-14.99c-6.21,-6.38 -10.95,-13.77 -14.21,-22.14c-3.27,-8.38 -4.9,-17.29 -4.9,-26.73l0,-5.1c0,-10.66 1.5,-20.47 4.49,-29.44c2.99,-8.96 7.36,-16.76 13.11,-23.4c5.75,-6.63 12.85,-11.78 21.29,-15.45c8.44,-3.66 18.11,-5.49 29,-5.49c10.14,0 19.17,1.65 27.09,4.95c7.92,3.3 14.61,8.01 20.06,14.12c5.46,6.11 9.6,13.47 12.45,22.08c2.84,8.61 4.26,18.22 4.26,28.85l0,16.94l-89.76,0Zm0.29,-26.59l49.09,0l0,-3.18c0.02,-5.01 -0.88,-9.4 -2.68,-13.17c-1.8,-3.77 -4.46,-6.71 -7.97,-8.81c-3.51,-2.1 -7.9,-3.15 -13.16,-3.15c-4.96,0 -9.12,1.07 -12.5,3.22c-3.37,2.15 -6.05,5.12 -8.03,8.93c-1.98,3.8 -3.41,8.23 -4.3,13.28c-0.17,0.95 -0.32,1.91 -0.45,2.88Zm160.01,15.69l0,69.5l-42.99,0l0,-192.28l73.73,0c14.73,0 27.49,2.2 38.25,6.6c10.77,4.4 19.07,10.91 24.9,19.53c5.83,8.62 8.74,19.26 8.74,31.9c0,10.65 -1.73,19.66 -5.18,27.04c-3.45,7.37 -8.28,13.48 -14.49,18.32c-4.3,3.36 -9.1,6.27 -14.41,8.73l40.89,78.23l0,1.92l-46.03,0l-35.16,-69.5l-28.25,0Zm0,-33.36l30.87,0c6.42,0 11.75,-1.15 15.98,-3.44c4.23,-2.29 7.42,-5.52 9.58,-9.68c2.16,-4.17 3.24,-9.07 3.24,-14.71c0,-5.84 -1.08,-10.88 -3.25,-15.09c-2.17,-4.22 -5.39,-7.46 -9.68,-9.72c-4.29,-2.26 -9.62,-3.39 -15.99,-3.39l-30.74,0l0,56.04Zm297.61,2.53l0,8.49c0,14.66 -2.01,27.8 -6.02,39.44c-4.02,11.63 -9.71,21.54 -17.08,29.74c-7.37,8.2 -16.1,14.46 -26.19,18.8c-10.09,4.34 -21.25,6.5 -33.48,6.5c-12.24,0 -23.43,-2.17 -33.56,-6.5c-10.13,-4.34 -18.91,-10.6 -26.34,-18.8c-7.43,-8.2 -13.16,-18.11 -17.21,-29.74c-4.04,-11.63 -6.07,-24.78 -6.07,-39.44l0,-8.49c0,-14.66 2.02,-27.82 6.06,-39.48c4.04,-11.66 9.73,-21.59 17.08,-29.79c7.35,-8.2 16.09,-14.47 26.21,-18.81c10.13,-4.34 21.31,-6.5 33.56,-6.5c12.23,0 23.4,2.17 33.53,6.5c10.13,4.34 18.88,10.61 26.26,18.81c7.38,8.2 13.1,18.14 17.16,29.79c4.06,11.66 6.09,24.82 6.09,39.48Zm-43.5,8.49l0,-8.76c0,-9.82 -0.87,-18.49 -2.61,-26c-1.74,-7.51 -4.3,-13.82 -7.69,-18.92c-3.38,-5.1 -7.53,-8.95 -12.45,-11.55c-4.92,-2.6 -10.51,-3.9 -16.78,-3.9c-6.45,0 -12.1,1.3 -16.97,3.9c-4.87,2.6 -8.96,6.45 -12.28,11.55c-3.32,5.1 -5.82,11.41 -7.51,18.92c-1.69,7.51 -2.53,16.18 -2.53,26l0,8.76c0,9.76 0.84,18.4 2.53,25.92c1.69,7.52 4.22,13.87 7.58,19.05c3.37,5.18 7.5,9.09 12.41,11.73c4.91,2.64 10.58,3.96 17.03,3.96c6.28,0 11.86,-1.32 16.74,-3.96c4.88,-2.64 8.98,-6.55 12.32,-11.73c3.34,-5.18 5.88,-11.53 7.61,-19.05c1.74,-7.52 2.6,-16.16 2.6,-25.92Zm174.8,41.13c0,-3.23 -0.48,-6.15 -1.44,-8.74c-0.96,-2.59 -2.71,-5 -5.25,-7.23c-2.54,-2.23 -6.15,-4.45 -10.84,-6.67c-4.69,-2.22 -10.79,-4.54 -18.31,-6.96c-8.62,-2.82 -16.84,-6 -24.64,-9.55c-7.81,-3.55 -14.74,-7.7 -20.78,-12.45c-6.05,-4.75 -10.82,-10.31 -14.32,-16.67c-3.5,-6.36 -5.24,-13.77 -5.24,-22.21c0,-8.15 1.8,-15.52 5.4,-22.12c3.6,-6.6 8.65,-12.25 15.15,-16.96c6.5,-4.71 14.17,-8.33 22.99,-10.86c8.82,-2.53 18.5,-3.8 29.02,-3.8c14.14,0 26.55,2.49 37.22,7.48c10.67,4.99 19,11.94 24.98,20.86c5.98,8.92 8.98,19.29 8.98,31.1l-42.74,0c0,-5.22 -1.08,-9.84 -3.24,-13.84c-2.16,-4 -5.4,-7.15 -9.73,-9.44c-4.33,-2.29 -9.78,-3.44 -16.35,-3.44c-6.34,0 -11.64,0.96 -15.92,2.88c-4.27,1.92 -7.49,4.49 -9.65,7.71c-2.16,3.23 -3.24,6.8 -3.24,10.72c0,3.09 0.82,5.88 2.46,8.37c1.64,2.49 4.03,4.81 7.17,6.96c3.14,2.15 6.99,4.2 11.56,6.13c4.57,1.93 9.78,3.82 15.64,5.65c10.33,3.23 19.47,6.83 27.43,10.8c7.96,3.97 14.66,8.46 20.11,13.46c5.45,5.01 9.57,10.68 12.38,17.03c2.8,6.35 4.21,13.52 4.21,21.52c0,8.5 -1.66,16.07 -4.98,22.7c-3.32,6.63 -8.07,12.25 -14.27,16.85c-6.19,4.6 -13.61,8.09 -22.25,10.48c-8.64,2.38 -18.28,3.58 -28.92,3.58c-9.7,0 -19.25,-1.25 -28.65,-3.75c-9.4,-2.5 -17.91,-6.35 -25.53,-11.54c-7.63,-5.19 -13.72,-11.82 -18.27,-19.9c-4.55,-8.08 -6.83,-17.65 -6.83,-28.72l43.08,0c0,5.79 0.83,10.69 2.5,14.7c1.67,4.01 4.08,7.24 7.23,9.69c3.15,2.45 6.96,4.22 11.42,5.31c4.46,1.08 9.48,1.62 15.05,1.62c6.38,0 11.58,-0.92 15.6,-2.76c4.02,-1.84 6.99,-4.32 8.91,-7.46c1.92,-3.14 2.88,-6.65 2.88,-10.54Zm203.21,18.67l0,32.03l-132.83,0l0,-27.2l62,-65.8c5.83,-6.63 10.49,-12.52 13.98,-17.67c3.49,-5.14 6.03,-9.8 7.6,-13.97c1.57,-4.17 2.35,-8.03 2.35,-11.57c0,-5.67 -0.89,-10.5 -2.68,-14.46c-1.78,-3.97 -4.39,-7.01 -7.82,-9.13c-3.43,-2.12 -7.64,-3.18 -12.63,-3.18c-5.22,0 -9.72,1.37 -13.52,4.12c-3.8,2.75 -6.71,6.52 -8.76,11.31c-2.04,4.79 -3.06,10.2 -3.06,16.24l-41.38,0c0,-11.64 2.8,-22.28 8.41,-31.93c5.6,-9.65 13.48,-17.35 23.62,-23.12c10.14,-5.77 22,-8.65 35.58,-8.65c13.85,0 25.49,2.19 34.93,6.57c9.44,4.38 16.58,10.68 21.43,18.9c4.84,8.22 7.27,18.07 7.27,29.55c0,6.52 -1.04,12.83 -3.12,18.93c-2.08,6.1 -5.04,12.14 -8.9,18.12c-3.86,5.98 -8.52,12.08 -13.98,18.29c-5.47,6.21 -11.62,12.74 -18.47,19.59l-29.13,33.04l79.12,0Z" style="fill:#225ec2;"/><path d="M370.12,552.18l-125.36,0l0,-192.28l42.99,0l0,159.03l82.37,0l0,33.25Zm61.32,-58.59c0.38,2.48 0.95,4.85 1.7,7.1c1.52,4.58 3.74,8.5 6.66,11.77c2.91,3.27 6.44,5.82 10.57,7.63c4.13,1.81 8.84,2.72 14.13,2.72c6.49,0 12.69,-1.24 18.6,-3.73c5.91,-2.49 11,-6.42 15.27,-11.8l19.33,22.05c-2.93,4.22 -7.02,8.3 -12.25,12.23c-5.23,3.93 -11.51,7.12 -18.83,9.58c-7.32,2.46 -15.57,3.69 -24.77,3.69c-11.35,0 -21.52,-1.81 -30.5,-5.42c-8.98,-3.61 -16.57,-8.61 -22.78,-14.99c-6.21,-6.38 -10.95,-13.77 -14.21,-22.14c-3.27,-8.38 -4.9,-17.29 -4.9,-26.73l0,-5.1c0,-10.66 1.5,-20.47 4.49,-29.44c2.99,-8.96 7.36,-16.76 13.11,-23.4c5.75,-6.63 12.85,-11.78 21.29,-15.45c8.44,-3.66 18.11,-5.49 29,-5.49c10.14,0 19.17,1.65 27.09,4.95c7.92,3.3 14.61,8.01 20.06,14.12c5.46,6.11 9.6,13.47 12.45,22.08c2.84,8.61 4.26,18.22 4.26,28.85l0,16.94l-89.76,0Zm0.29,-26.59l49.09,0l0,-3.18c0.02,-5.01 -0.88,-9.4 -2.68,-13.17c-1.8,-3.77 -4.46,-6.71 -7.97,-8.81c-3.51,-2.1 -7.9,-3.15 -13.16,-3.15c-4.96,0 -9.12,1.07 -12.5,3.22c-3.37,2.15 -6.05,5.12 -8.03,8.93c-1.98,3.8 -3.41,8.23 -4.3,13.28c-0.17,0.95 -0.32,1.91 -0.45,2.88Zm160.01,15.69l0,69.5l-42.99,0l0,-192.28l73.73,0c14.73,0 27.49,2.2 38.25,6.6c10.77,4.4 19.07,10.91 24.9,19.53c5.83,8.62 8.74,19.26 8.74,31.9c0,10.65 -1.73,19.66 -5.18,27.04c-3.45,7.37 -8.28,13.48 -14.49,18.32c-4.3,3.36 -9.1,6.27 -14.41,8.73l40.89,78.23l0,1.92l-46.03,0l-35.16,-69.5l-28.25,0Zm0,-33.36l30.87,0c6.42,0 11.75,-1.15 15.98,-3.44c4.23,-2.29 7.42,-5.52 9.58,-9.68c2.16,-4.17 3.24,-9.07 3.24,-14.71c0,-5.84 -1.08,-10.88 -3.25,-15.09c-2.17,-4.22 -5.39,-7.46 -9.68,-9.72c-4.29,-2.26 -9.62,-3.39 -15.99,-3.39l-30.74,0l0,56.04Zm297.61,2.53l0,8.49c0,14.66 -2.01,27.8 -6.02,39.44c-4.02,11.63 -9.71,21.54 -17.08,29.74c-7.37,8.2 -16.1,14.46 -26.19,18.8c-10.09,4.34 -21.25,6.5 -33.48,6.5c-12.24,0 -23.43,-2.17 -33.56,-6.5c-10.13,-4.34 -18.91,-10.6 -26.34,-18.8c-7.43,-8.2 -13.16,-18.11 -17.21,-29.74c-4.04,-11.63 -6.07,-24.78 -6.07,-39.44l0,-8.49c0,-14.66 2.02,-27.82 6.06,-39.48c4.04,-11.66 9.73,-21.59 17.08,-29.79c7.35,-8.2 16.09,-14.47 26.21,-18.81c10.13,-4.34 21.31,-6.5 33.56,-6.5c12.23,0 23.4,2.17 33.53,6.5c10.13,4.34 18.88,10.61 26.26,18.81c7.38,8.2 13.1,18.14 17.16,29.79c4.06,11.66 6.09,24.82 6.09,39.48Zm-43.5,8.49l0,-8.76c0,-9.82 -0.87,-18.49 -2.61,-26c-1.74,-7.51 -4.3,-13.82 -7.69,-18.92c-3.38,-5.1 -7.53,-8.95 -12.45,-11.55c-4.92,-2.6 -10.51,-3.9 -16.78,-3.9c-6.45,0 -12.1,1.3 -16.97,3.9c-4.87,2.6 -8.96,6.45 -12.28,11.55c-3.32,5.1 -5.82,11.41 -7.51,18.92c-1.69,7.51 -2.53,16.18 -2.53,26l0,8.76c0,9.76 0.84,18.4 2.53,25.92c1.69,7.52 4.22,13.87 7.58,19.05c3.37,5.18 7.5,9.09 12.41,11.73c4.91,2.64 10.58,3.96 17.03,3.96c6.28,0 11.86,-1.32 16.74,-3.96c4.88,-2.64 8.98,-6.55 12.32,-11.73c3.34,-5.18 5.88,-11.53 7.61,-19.05c1.74,-7.52 2.6,-16.16 2.6,-25.92Zm174.8,41.13c0,-3.23 -0.48,-6.15 -1.44,-8.74c-0.96,-2.59 -2.71,-5 -5.25,-7.23c-2.54,-2.23 -6.15,-4.45 -10.84,-6.67c-4.69,-2.22 -10.79,-4.54 -18.31,-6.96c-8.62,-2.82 -16.84,-6 -24.64,-9.55c-7.81,-3.55 -14.74,-7.7 -20.78,-12.45c-6.05,-4.75 -10.82,-10.31 -14.32,-16.67c-3.5,-6.36 -5.24,-13.77 -5.24,-22.21c0,-8.15 1.8,-15.52 5.4,-22.12c3.6,-6.6 8.65,-12.25 15.15,-16.96c6.5,-4.71 14.17,-8.33 22.99,-10.86c8.82,-2.53 18.5,-3.8 29.02,-3.8c14.14,0 26.55,2.49 37.22,7.48c10.67,4.99 19,11.94 24.98,20.86c5.98,8.92 8.98,19.29 8.98,31.1l-42.74,0c0,-5.22 -1.08,-9.84 -3.24,-13.84c-2.16,-4 -5.4,-7.15 -9.73,-9.44c-4.33,-2.29 -9.78,-3.44 -16.35,-3.44c-6.34,0 -11.64,0.96 -15.92,2.88c-4.27,1.92 -7.49,4.49 -9.65,7.71c-2.16,3.23 -3.24,6.8 -3.24,10.72c0,3.09 0.82,5.88 2.46,8.37c1.64,2.49 4.03,4.81 7.17,6.96c3.14,2.15 6.99,4.2 11.56,6.13c4.57,1.93 9.78,3.82 15.64,5.65c10.33,3.23 19.47,6.83 27.43,10.8c7.96,3.97 14.66,8.46 20.11,13.46c5.45,5.01 9.57,10.68 12.38,17.03c2.8,6.35 4.21,13.52 4.21,21.52c0,8.5 -1.66,16.07 -4.98,22.7c-3.32,6.63 -8.07,12.25 -14.27,16.85c-6.19,4.6 -13.61,8.09 -22.25,10.48c-8.64,2.38 -18.28,3.58 -28.92,3.58c-9.7,0 -19.25,-1.25 -28.65,-3.75c-9.4,-2.5 -17.91,-6.35 -25.53,-11.54c-7.63,-5.19 -13.72,-11.82 -18.27,-19.9c-4.55,-8.08 -6.83,-17.65 -6.83,-28.72l43.08,0c0,5.79 0.83,10.69 2.5,14.7c1.67,4.01 4.08,7.24 7.23,9.69c3.15,2.45 6.96,4.22 11.42,5.31c4.46,1.08 9.48,1.62 15.05,1.62c6.38,0 11.58,-0.92 15.6,-2.76c4.02,-1.84 6.99,-4.32 8.91,-7.46c1.92,-3.14 2.88,-6.65 2.88,-10.54Zm203.21,18.67l0,32.03l-132.83,0l0,-27.2l62,-65.8c5.83,-6.63 10.49,-12.52 13.98,-17.67c3.49,-5.14 6.03,-9.8 7.6,-13.97c1.57,-4.17 2.35,-8.03 2.35,-11.57c0,-5.67 -0.89,-10.5 -2.68,-14.46c-1.78,-3.97 -4.39,-7.01 -7.82,-9.13c-3.43,-2.12 -7.64,-3.18 -12.63,-3.18c-5.22,0 -9.72,1.37 -13.52,4.12c-3.8,2.75 -6.71,6.52 -8.76,11.31c-2.04,4.79 -3.06,10.2 -3.06,16.24l-41.38,0c0,-11.64 2.8,-22.28 8.41,-31.93c5.6,-9.65 13.48,-17.35 23.62,-23.12c10.14,-5.77 22,-8.65 35.58,-8.65c13.85,0 25.49,2.19 34.93,6.57c9.44,4.38 16.58,10.68 21.43,18.9c4.84,8.22 7.27,18.07 7.27,29.55c0,6.52 -1.04,12.83 -3.12,18.93c-2.08,6.1 -5.04,12.14 -8.9,18.12c-3.86,5.98 -8.52,12.08 -13.98,18.29c-5.47,6.21 -11.62,12.74 -18.47,19.59l-29.13,33.04l79.12,0Z" style="fill:#fff;"/></g></svg>